# xmcd
#
# Track frame offsets:
#	150
#	22877
#	46516
#	68026
#	82896
#	100060
#	116675
#	132180
#	149943
#	164049
#
# Disc length: 2545 seconds
#
# Revision: 0
# Processed by: cddbd v1.4PL0 Copyright (c) Steve Scherf et al.
# Submitted via: EZCDDA 4.3.3.2
#
DISCID=8209ef0a
DTITLE=Les troubadours du Désordre - Charivari
DYEAR=1900
DGENRE=
TTITLE0=Les deux petits couillons
TTITLE1=Même si personne
TTITLE2=Qui veut m'entendre
TTITLE3=La cité des anges
TTITLE4=La traversée de Paris
TTITLE5=Mon homme
TTITLE6=Jezebel
TTITLE7=Le nouvel homme
TTITLE8=mon amant de Saint-Jean
TTITLE9=Simone
EXTD=
EXTT0=
EXTT1=
EXTT2=
EXTT3=
EXTT4=
EXTT5=
EXTT6=
EXTT7=
EXTT8=
EXTT9=
PLAYORDER=
